<svg width="34" height="36" viewBox="0 0 34 36" fill="none" xmlns="http://www.w3.org/2000/svg">
<path d="M16.8336 23.8371C18.2863 23.8371 19.6795 23.1774 20.7067 22.0029C21.7339 20.8285 22.311 19.2356 22.311 17.5747C22.311 15.9138 21.7339 14.3209 20.7067 13.1465C19.6795 11.972 18.2863 11.3123 16.8336 11.3123C15.3809 11.3123 13.9877 11.972 12.9605 13.1465C11.9333 14.3209 11.3562 15.9138 11.3562 17.5747C11.3562 19.2356 11.9333 20.8285 12.9605 22.0029C13.9877 23.1774 15.3809 23.8371 16.8336 23.8371Z" fill="white"/>
<path d="M29.7485 11.6316C29.8174 9.48619 29.3051 7.36465 28.272 5.51751C27.2389 3.67036 25.7282 2.17475 23.9182 1.20726C22.1082 0.239763 20.0745 -0.159211 18.0572 0.0574438C16.0399 0.274098 14.1234 1.09733 12.5337 2.42995C10.3527 2.00829 8.10176 2.31952 6.09618 3.32003C4.0906 4.32055 2.43087 5.96022 1.34952 8.00936C0.268157 10.0585 -0.18066 12.4144 0.0659386 14.7471C0.312537 17.0799 1.2422 19.2725 2.72468 21.0178C1.9181 23.4451 1.92192 26.0918 2.7355 28.5166C3.54908 30.9413 5.12324 32.9974 7.19545 34.342C9.26766 35.6866 11.7126 36.2384 14.1226 35.9054C16.5326 35.5724 18.7619 34.3747 20.4388 32.512C21.7358 33.3887 23.2578 33.8178 24.7949 33.7403C26.332 33.6627 27.8085 33.0823 29.0209 32.079C30.2334 31.0758 31.122 29.699 31.5644 28.1386C32.0068 26.5782 31.9812 24.9109 31.491 23.3666C32.4052 22.6281 33.1138 21.6417 33.5418 20.5118C33.9698 19.3818 34.1013 18.1503 33.9223 16.9477C33.7432 15.7451 33.2604 14.6162 32.5249 13.6803C31.7894 12.7445 30.8286 12.0366 29.7442 11.6316H29.7485ZM27.6234 11.5551C27.6083 12.0338 27.7378 12.505 27.9931 12.9004C28.2484 13.2957 28.6162 13.5945 29.043 13.7532C29.7659 14.0235 30.4064 14.4957 30.8966 15.1198C31.3868 15.744 31.7085 16.4968 31.8276 17.2987C31.9467 18.1006 31.8588 18.9216 31.5732 19.6749C31.2877 20.4283 30.815 21.0858 30.2053 21.578C29.8528 21.8631 29.5934 22.2578 29.4634 22.7069C29.3335 23.1559 29.3395 23.6368 29.4807 24.082C29.8318 25.1853 29.8508 26.3768 29.5352 27.492C29.2196 28.6072 28.5849 29.5913 27.7187 30.3085C26.8525 31.0256 25.7974 31.4405 24.699 31.4959C23.6006 31.5513 22.513 31.2444 21.5863 30.6177C21.1712 30.3367 20.6767 30.2171 20.1875 30.2795C19.6983 30.3419 19.2448 30.5823 18.9045 30.9597C17.5634 32.4513 15.7797 33.4109 13.851 33.6781C11.9223 33.9454 9.96534 33.5043 8.30679 32.4283C6.64824 31.3524 5.38842 29.7067 4.7376 27.7661C4.08678 25.8254 4.08434 23.7071 4.73069 21.7647C4.85701 21.3838 4.88421 20.974 4.80943 20.5782C4.73466 20.1823 4.56066 19.8151 4.30569 19.5149C3.1193 18.1187 2.37525 16.3644 2.17778 14.498C1.98032 12.6316 2.33934 10.7466 3.20455 9.10703C4.06975 7.46748 5.39778 6.1556 7.00254 5.35522C8.60729 4.55484 10.4084 4.30606 12.1534 4.64375C12.4507 4.70103 12.7561 4.69052 13.0492 4.61293C13.3424 4.53534 13.6165 4.39245 13.8534 4.19379C15.1252 3.12811 16.6585 2.46995 18.2723 2.297C19.886 2.12405 21.5128 2.44353 22.9606 3.21774C24.4083 3.99195 25.6167 5.18855 26.4429 6.66627C27.2691 8.144 27.6788 9.83891 27.6234 11.5551Z" fill="white"/>
</svg>
